<?xml version="1.0" standalone="no"?><!DOCTYPE svg PUBLIC "-//W3C//DTD SVG 1.1//EN" "http://www.w3.org/Graphics/SVG/1.1/DTD/svg11.dtd"><svg t="1724637576732" class="icon" viewBox="0 0 1024 1024" version="1.1" xmlns="http://www.w3.org/2000/svg" p-id="1239" xmlns:xlink="http://www.w3.org/1999/xlink" width="200" height="200"><path d="M579.5328 132.352L655.6672 286.72a78.7456 78.7456 0 0 0 59.3408 43.1104l170.2912 24.7808a78.7968 78.7968 0 0 1 43.6736 134.4l-123.2384 120.064a78.6944 78.6944 0 0 0-22.3744 69.632l29.0816 169.6256a78.7968 78.7968 0 0 1-114.3296 83.0464l-152.32-80.0768a78.9504 78.9504 0 0 0-73.3184 0l-152.576 80.0768a78.7968 78.7968 0 0 1-114.3296-83.0464l29.0816-169.6256a78.848 78.848 0 0 0-22.6304-69.7344L88.7808 488.9088a78.7968 78.7968 0 0 1 43.6736-134.4l170.2912-24.7808A78.848 78.848 0 0 0 362.0864 286.72l76.1344-154.368a78.7968 78.7968 0 0 1 141.312 0z" fill="#E51F4E" p-id="1240"></path><path d="M559.872 164.1472l72.7552 147.5072A76.0832 76.0832 0 0 0 690.0224 353.28l162.7648 23.6544A76.2368 76.2368 0 0 1 895.0272 506.88l-117.76 114.7904a76.4928 76.4928 0 0 0-21.9136 67.4816l28.0064 162.2016A76.2368 76.2368 0 0 1 672.5632 931.84l-145.5616-76.8a76.288 76.288 0 0 0-70.9632 0l-145.5616 76.8A76.2368 76.2368 0 0 1 199.68 851.3536l27.8528-162.0992a76.4928 76.4928 0 0 0-21.9136-67.4816L88.0128 506.88a76.2368 76.2368 0 0 1 42.24-129.9968L293.0176 353.28a76.0832 76.0832 0 0 0 57.3952-41.6768l72.7552-147.456a76.2368 76.2368 0 0 1 136.704 0z" fill="#F5536C" p-id="1241"></path><path d="M523.9296 364.1344l45.4144 90.4192a35.2768 35.2768 0 0 0 26.5728 18.8928l101.5808 14.4896a34.4576 34.4576 0 0 1 19.5584 59.0336l-73.5232 70.3488a33.9968 33.9968 0 0 0-10.24 30.72L650.752 747.52a35.1232 35.1232 0 0 1-51.2 36.5056l-90.88-46.8992a35.84 35.84 0 0 0-32.8192 0l-90.8288 46.6432a35.1232 35.1232 0 0 1-51.2-36.5056l17.3568-99.328a33.9968 33.9968 0 0 0-10.24-30.72l-73.3696-70.2464a34.4576 34.4576 0 0 1 19.5584-59.0336l101.5808-14.4896a35.2768 35.2768 0 0 0 26.5728-18.8928L460.8 364.1344a35.84 35.84 0 0 1 63.1296 0z" fill="#E51F4E" p-id="1242"></path><path d="M527.6672 331.8272l44.5952 90.368a34.56 34.56 0 0 0 26.0608 18.8928L698.0608 455.68a34.56 34.56 0 0 1 19.2 58.9824L645.12 584.96a34.7136 34.7136 0 0 0-9.984 30.72l17.0496 99.3792a34.56 34.56 0 0 1-50.176 36.4544l-89.2416-46.8992a34.3552 34.3552 0 0 0-32.1536 0l-89.2416 46.8992a34.56 34.56 0 0 1-50.176-36.4544L358.4 615.5776a34.7136 34.7136 0 0 0-9.984-30.72l-72.192-70.3488A34.56 34.56 0 0 1 295.2192 455.68l99.7376-14.5408a34.56 34.56 0 0 0 26.0608-18.8928l44.5952-90.368a34.56 34.56 0 0 1 62.0544-0.0512z" fill="#FF9100" p-id="1243"></path><path d="M511.6416 357.6832l41.9328 84.8384a32.4608 32.4608 0 0 0 24.4224 17.7664l93.6448 13.6192a32.4608 32.4608 0 0 1 18.0224 55.3984l-67.7888 66.048a32.6144 32.6144 0 0 0-9.3184 28.7744l15.9744 93.2864a32.4608 32.4608 0 0 1-47.104 34.2528L497.664 707.584a32.6144 32.6144 0 0 0-30.2592 0l-83.7632 44.0832a32.4608 32.4608 0 0 1-47.104-34.2528l15.9744-93.2864a32.6144 32.6144 0 0 0-9.472-28.7744l-67.7888-66.048a32.4608 32.4608 0 0 1 18.0224-55.3984L387.072 460.288a32.6144 32.6144 0 0 0 24.4736-17.7664l41.8816-84.8384a32.4096 32.4096 0 0 1 58.2144 0z" fill="#F6E937" p-id="1244"></path></svg>