<svg id="abed636b-13f7-4927-8bf4-2abe0a10adcb" data-name="Warstwa 1" xmlns="http://www.w3.org/2000/svg" xmlns:xlink="http://www.w3.org/1999/xlink" viewBox="0 0 1920 640"><defs><clipPath id="b73a05d4-647b-43e0-9217-fb11a60b4ac2"><rect width="1920" height="640" fill="none"/></clipPath><clipPath id="bd1007db-f10c-4236-b349-dbef6e9d772d"><rect x="-5.5" y="-5" width="1931" height="650" fill="none"/></clipPath><linearGradient id="b543dc26-910c-4e16-aff8-7d4bcd8aaa0a" x1="6604.9506" y1="25.384" x2="4655.2492" y2="577.274" gradientTransform="matrix(-0.9998, -0.0185, -0.0185, 0.9998, 6680.7096, 61.9476)" gradientUnits="userSpaceOnUse"><stop offset="0.1085" stop-color="#572ab8"/><stop offset="1" stop-color="#301768"/></linearGradient><linearGradient id="f966c16d-79e3-46bc-a9be-a074c5c72547" x1="22.247" y1="739.6721" x2="723.2079" y2="2.1394" gradientTransform="matrix(1, 0, 0, 1, 0, 0)" xlink:href="#b543dc26-910c-4e16-aff8-7d4bcd8aaa0a"/><clipPath id="a687c435-89a7-475d-8069-df730923085d"><path d="M401.1327,401.9869l-178.813-.5312c-4.9081-.0146-8.1717-4.1889-7.29-9.3236L250.301,186.8315c.8821-5.1347,5.5683-9.2854,10.4668-9.2708l178.4664.5312c4.8986.0146,8.1617,4.1889,7.2883,9.3236L411.6011,392.7161C410.7277,397.8508,406.0408,402.0015,401.1327,401.9869Z" fill="none"/></clipPath><linearGradient id="a5065de6-c358-4286-82c2-b885a5ba72c5" x1="2059.2945" y1="50.6943" x2="1381.9739" y2="192.6654" gradientUnits="userSpaceOnUse"><stop offset="0" stop-color="#ff4d4d"/><stop offset="0.2115" stop-color="#da487e"/><stop offset="0.4779" stop-color="#b042b5"/><stop offset="0.7078" stop-color="#923edd"/><stop offset="0.8893" stop-color="#7f3cf6"/><stop offset="1" stop-color="#783bff"/></linearGradient><clipPath id="b50f3f6d-b98e-4739-bc83-206f928c00e7"><path d="M280.9978,305.09H258.8316c-12.1,0-20.1635-10.3086-18.0106-23.0248v0c2.1529-12.7163,13.7123-23.0249,25.8187-23.0249h20.8874" fill="#ff7f7f" clip-rule="evenodd"/></clipPath><clipPath id="b7bc0ce0-dfc5-49d0-b815-2cd25a49d0bf"><path d="M1494.263,560.9437l-228.7662.0108c-6.99,0-11.6825-5.6992-10.4809-12.73l26.5035-155.0771c1.2016-7.031,7.8643-12.7311,14.8815-12.7314l229.6543-.0107c7.0172,0,11.7,5.6991,10.46,12.73l-27.3508,155.0772C1507.9249,555.2434,1501.253,560.9434,1494.263,560.9437Z" fill="none"/></clipPath><clipPath id="ec606ec4-31ff-41f4-b368-e52021cabbbf"><path d="M1478.8667,104.4651c-78.8031-3.5563-141.0388-66.8886-144.8222-144.153a13.1487,13.1487,0,0,1,13.73-13.7657l64.327,2.903a13.0609,13.0609,0,0,1,12.4207,11.2616,61.7984,61.7984,0,0,0,58.4086,53.6944,61.7983,61.7983,0,0,0,63.0076-48.215,13.0607,13.0607,0,0,1,13.3845-10.0971l64.3271,2.903a13.1486,13.1486,0,0,1,12.4344,14.9465C1625.3571,50.5523,1557.67,108.0213,1478.8667,104.4651Z" fill="none"/></clipPath><clipPath id="ae092e48-7e5e-4509-97a2-e41b789a6c6b"><circle cx="1902.8565" cy="350.4283" r="78.3583" fill="none"/></clipPath></defs><g clip-path="url(#b73a05d4-647b-43e0-9217-fb11a60b4ac2)"><g clip-path="url(#bd1007db-f10c-4236-b349-dbef6e9d772d)"><path d="M-51.0716,332.5593C8.6732,427.1927,128.0824,508.5166,247.943,559.7647S507.7245,632.69,641.2685,620.6994c156.5376-14.0546,297.987-71.9794,449.0908-104.0843,280.156-59.5245,596.0047-25.613,852.3682,91.5156L1936.208-18.884-50.1282-4.9481Z" fill="url(#b543dc26-910c-4e16-aff8-7d4bcd8aaa0a)"/><path d="M437.5086,562.7262C855.3276,454.9393,699.1578,404.938,634.2126,423.88c-83.8875,25.7075-219.19,82.5345-261.1336-17.5893-31.12-75.7693,37.8847-143.42,64.9452-215.1308,5.4121-17.5893,4.059-39.2377-10.8242-55.474-25.7075-28.4135-69.0042-16.2362-96.0647,5.4121C237.7766,211.4556,145.771,262.8705,32.117,280.46c-38.21,5.7031-79.0644,8.7613-118.51,5.1227l-.1462,52.3088c59.7448,94.6334,179.1539,175.9572,299.0146,227.2053s259.7814,72.9249,393.3255,60.9346c24.9715-2.2419,49.5561-5.6093,73.86-9.8012C707.13,595.9793,264,623.9255,437.5086,562.7262Z" fill="url(#f966c16d-79e3-46bc-a9be-a074c5c72547)"/><path d="M412.0856,414.2053l-181.0162-.5635c-13.53,0-17.1721-13.3085-16.2362-18.7558L252.072,185.9524c.9359-5.4473,5.9073-9.8506,11.1041-9.8352l189.33.5636c5.1968.0155,8.6585,4.4439,7.732,9.8912L423.1913,404.37C422.2647,409.8175,417.2925,414.2208,412.0856,414.2053Z" fill="#2f3133"/><path d="M401.1327,401.9869l-178.813-.5312c-4.9081-.0146-8.1717-4.1889-7.29-9.3236L250.301,186.8315c.8821-5.1347,5.5683-9.2854,10.4668-9.2708l178.4664.5312c4.8986.0146,8.1617,4.1889,7.2883,9.3236L411.6011,392.7161C410.7277,397.8508,406.0408,402.0015,401.1327,401.9869Z" fill="#a176ff"/><g opacity="0.5"><g clip-path="url(#a687c435-89a7-475d-8069-df730923085d)"><path d="M353.5986,445.9035a323.5047,323.5047,0,0,1-20.0727-56.6684q-10.1567,6.8238-20.8444,12.83c-10.6154,5.9591-23.3416,12.3437-37.2458,14.5027-14.7736,2.2912-28.8852-.8615-38.7118-8.6585-16.36-12.978-19.4094-36.537-20.2386-55.6127q-.4855-11.1744-.4274-21.7555-32.5974,24.0513-66.9661,45.4783l-1.431-2.2964q35.1-21.877,68.43-46.571c.55-39.284,6.851-72.5467,19.1-101.1253,18.242-42.5608,51.79-75.2977,89.7389-87.5727,12.1375-3.9295,21.5-3.9,28.6229.0833,9.9429,5.5614,13.4034,17.699,12.7308,29.44q1.764-1.5974,3.6052-3.0694A65.6469,65.6469,0,0,1,408.95,150.9351c15.0676-.304,28.1816,4.943,37.0139,14.7075,20.5107,22.6777,11.3811,58.6425,4.1132,78.0631-21.3609,57.0767-62.2708,108.3357-114.1679,143.9121a320.9117,320.9117,0,0,0,20.1447,57.1494ZM218.7805,328.526q-.1219,11.4756.4082,23.6542c1.5308,35.2182,11.074,47.15,19.2172,53.61,9.238,7.3267,22.5832,10.28,36.6149,8.1036,13.478-2.093,25.9314-8.3467,36.3354-14.1883q11.0109-6.1816,21.476-13.2659A327.1218,327.1218,0,0,1,331.63,236.46q.8315-3.6388,1.7389-7.1166c-4.5057,4.7977-9.1336,9.3589-13.6591,13.7179A1037.21,1037.21,0,0,1,218.7805,328.526ZM337.3669,224.9827q-1.6629,5.7974-3.0991,12.0795a324.43,324.43,0,0,0,.9526,147.7451c51.045-35.2394,91.269-85.7967,112.3222-142.05,7.0518-18.8445,15.9641-53.6849-3.5861-75.2989-14.7775-16.3407-47.3888-20.4156-72.3775-.4361a75.5011,75.5011,0,0,0-5.6982,5.0514c-.2008,1.4442-.4618,2.8686-.7789,4.26C360.8546,194.9889,349.88,210.9676,337.3669,224.9827Zm3.6422-86.7494a50.2664,50.2664,0,0,0-15.2466,2.7946c-37.2168,12.0384-70.1452,44.2111-88.0846,86.0636-11.8918,27.7463-18.1126,60.0022-18.8466,98.0229a1034.2368,1034.2368,0,0,0,99.0013-84.0037c5.6923-5.4808,11.551-11.2893,17.1064-17.4757,6.672-23.0146,16.0361-40.4441,28.3811-52.8327,1.42-11.7121-1.35-24.4562-11.0884-29.9026A22.5679,22.5679,0,0,0,341.0091,138.2333Zm21.4819,37.3773c-9.6667,10.7237-17.3369,24.9477-23.18,42.9915,10.5712-12.608,19.4834-26.7553,23.1521-42.8687Z" fill="#ccb4ff"/></g></g><g clip-path="url(#a687c435-89a7-475d-8069-df730923085d)"><path d="M338.7593,277.2259H316.2155l24.5864-144.5415c.8733-5.1347-2.39-9.3091-7.2883-9.3236L155.0472,122.83c-4.8985-.0146-9.5847,4.1361-10.4668,9.2708L109.31,337.4009c-.8822,5.1347,2.3815,9.309,7.29,9.3236l178.8129.5313c4.9082.0145,9.5951-4.1362,10.4685-9.2709l2.502-14.7092h22.5137c12.1,0,23.6717-10.3085,25.8462-23.0248h0C358.917,287.5346,350.8657,277.2259,338.7593,277.2259Z" fill="#2f3133" fill-rule="evenodd"/></g><line x1="309.1474" y1="208.058" x2="444.0261" y2="208.058" fill="none" stroke="#2f3133" stroke-miterlimit="10"/><g opacity="0.2"><path d="M1852.93,220.2156c-17.0482-1.3015-36.61-10.7869-41.2481-33.0528-4.9047-23.5454,10.1756-46.56,26.4659-57.1143s35.0138-14.41,49.6946-28.6536c4.5126-4.3782,8.7821-10.2754,9.5167-17.7292,1.2615-12.7961-8.9945-23.2622-18.5218-23.1355s-18.09,7.3952-26.1663,14.244c-71.68,60.7866-149.887,107.42-231.3877,137.9714-16.6142,6.2284-34.0288,11.8258-50.9434,7.32s-33.1616-21.9038-34.9259-45.1377c-2.33-30.6874,19.6644-53.9948,40.13-67.5123,50.6184-33.4337,106.8143-47.4,160.5289-70.3079,31.6118-13.4813,63.3342-31.0915,90.72-55.9918H1600.55a278.5351,278.5351,0,0,1-31.3343,26.2394c-42.2065,30.0218-93.8832,42.2321-137.797,17.1044C1414.4435,14.7466,1393.7.2842,1379.546,16.2711c-11.1337,12.575-9.3371,37.9931.0819,52.92s23.9306,21.7552,37.8906,27.04c10.5271,3.9852,21.6842,7.8486,29.5124,18.1844s10.41,29.6146,2.2369,39.4482c-7.1108,8.5553-18.0635,6.036-27.2392,2.65-83.591-30.8472-160.7219-92.4-221.9335-175.3984H1099.818c-2.9008,150.2827,140.8435,182.2623,187.2493,196.061,17.6171,5.2384,37.4538,15.2922,43.0578,38.52,5.5038,22.8136-6.8608,48.2389-23.2444,57.3644s-35.1383,5.4734-52.0494-1.6712-33.1118-17.63-50.5065-22.1669c-15.4564-4.0309-36.2745,1.9966-38.4446,23.12a33.2549,33.2549,0,0,0,1.4488,13.4983c117.526,102.37,251.8585,147.819,389.9109,136.6059,114.2821-9.2826,222.7886-58.8155,329.9064-106.6,19.418-8.6619,38.9189-17.2951,58.515-25.6549v-102.41C1916.4477,208.1473,1885.33,222.6884,1852.93,220.2156Z" fill="url(#a5065de6-c358-4286-82c2-b885a5ba72c5)"/></g><circle cx="1777.7466" cy="464.2286" r="30.1002" fill="#f294ff"/><path d="M1783.0248,483.7721a30.1011,30.1011,0,0,1-29.0442-38.0038,30.0972,30.0972,0,1,0,52.81,26.3639A30.0408,30.0408,0,0,1,1783.0248,483.7721Z" fill="#2f3133" opacity="0.2"/><g opacity="0.48"><circle cx="604.064" cy="-0.4915" r="47.0801" fill="#f7bfff"/><path d="M616.125,34.5276a47.08,47.08,0,0,1-47.08-47.08,46.8514,46.8514,0,0,1,8.313-26.7061A47.02,47.02,0,0,0,556.9839-.4914a47.08,47.08,0,0,0,47.08,47.08,47.02,47.02,0,0,0,38.7672-20.3741A46.8518,46.8518,0,0,1,616.125,34.5276Z" fill="#f294ff"/></g><path d="M382.9985,58.2508h29.8692c8.707,0,14.3989,7.4195,12.7133,16.5719h0c-1.6856,9.1524-10.1062,16.5719-18.808,16.5719H332.08" fill="#ffbc9a" fill-rule="evenodd"/><path d="M332.08,91.3946h-32.174c-8.7018,0-14.4078-7.4195-12.7448-16.5719h0c1.6631-9.1524,10.07-16.5719,18.7766-16.5719h77.061" fill="#ffa172" fill-rule="evenodd"/><ellipse cx="1814.9596" cy="197.0327" rx="9.5386" ry="9.9934" fill="#ff4d4d"/><path d="M1819.5668,188.284a10.284,10.284,0,0,1,1.6189,5.57,9.7739,9.7739,0,0,1-9.5386,9.9933,9.1542,9.1542,0,0,1-4.6072-1.2447,9.4217,9.4217,0,0,0,7.92,4.4235,9.774,9.774,0,0,0,9.5387-9.9933A10.07,10.07,0,0,0,1819.5668,188.284Z" fill="#2f3133" opacity="0.2"/><ellipse cx="1301.9244" cy="25.5771" rx="9.5386" ry="9.9934" fill="#ffa172"/><path d="M1306.5316,16.8285a10.2839,10.2839,0,0,1,1.6189,5.57,9.7739,9.7739,0,0,1-9.5386,9.9933,9.1551,9.1551,0,0,1-4.6072-1.2446,9.4216,9.4216,0,0,0,7.92,4.4235,9.774,9.774,0,0,0,9.5386-9.9934A10.07,10.07,0,0,0,1306.5316,16.8285Z" fill="#2f3133" opacity="0.2"/><path d="M526.1433,574.3739a33.75,33.75,0,0,0,19.3029-.105,12.929,12.929,0,0,1,13.4865,3.8861,35.0157,35.0157,0,0,0,18.0294,10.9342c17.8789,4.3437,36.2341-6.604,41.7989-24.9271,6.139-20.2136-5.0053-41.5412-24.3391-47.1531a33.7516,33.7516,0,0,0-19.3034.1052,12.9753,12.9753,0,0,1-13.52-3.9243,35.0592,35.0592,0,0,0-16.5-10.4975,33.7511,33.7511,0,0,0-19.303.1051,12.929,12.929,0,0,1-13.4864-3.8861,35.0157,35.0157,0,0,0-18.0294-10.9342c-17.879-4.3437-36.2341,6.6039-41.799,24.9271-6.1389,20.2136,5.0054,41.5411,24.3392,47.153a33.75,33.75,0,0,0,19.3033-.1052,12.9758,12.9758,0,0,1,13.52,3.9243A35.0576,35.0576,0,0,0,526.1433,574.3739Z" fill="#783bff" fill-rule="evenodd"/><line x1="481.6752" y1="521.6989" x2="582.434" y2="551.7002" fill="none" stroke="#fff" stroke-miterlimit="10"/><circle cx="481.6752" cy="521.6989" r="3.6794" fill="#fff"/><circle cx="586.0785" cy="553.1284" r="3.6794" fill="#fff"/><path d="M275.6615,341.803,94.6453,341.24c-13.53,0-17.1721-13.3086-16.2363-18.7558L115.6479,113.55c.9359-5.4473,5.9073-9.8507,11.1041-9.8352l189.33.5636c5.1968.0155,8.6585,4.4439,7.732,9.8912L286.7672,331.9679C285.8406,337.4152,280.8684,341.8185,275.6615,341.803Z" fill="#2f3133"/><path d="M267.4861,331.9134l-181.8231-.54c-4.9907-.0149-8.3093-4.2594-7.4123-9.4806l35.8646-208.7566c.897-5.2211,5.662-9.4417,10.643-9.4268l181.4706.54c4.9811.0149,8.2991,4.2594,7.4111,9.4806L278.1307,322.4866C277.2426,327.7077,272.4768,331.9283,267.4861,331.9134Z" fill="#783bff"/><path d="M260.7679,177.5607c-4.8986-.0146-9.5848,4.1361-10.4669,9.2708L225.3973,331.7884l42.0888.125c4.9908.0149,9.7565-4.2056,10.6447-9.4268l24.63-144.8009Z" fill="#b18dff"/><line x1="109.1742" y1="137.2814" x2="310.3203" y2="137.88" fill="none" stroke="#2f3133" stroke-miterlimit="10"/><path d="M239.0253,251.0345a67.82,67.82,0,0,0,7.7135-22.6293,57.56,57.56,0,0,0-.3287-19.5935" fill="#783bff"/><path d="M246.41,208.8117c-4.3331-22.1646-22.2262-38.0041-46.0225-38.0041-30.3628,0-58.3878,25.7873-62.5957,57.5976s16.5442,57.5977,46.3512,57.5977c22.28,0,43.5637-14.4074,54.8822-34.9684" fill="#9a6cff"/><path d="M368.3951,305.09H266.1539c-12.1,0-20.1635-10.3086-18.0106-23.0248v0c2.1529-12.7163,13.7123-23.0249,25.8187-23.0249H376.2582c12.1064,0,20.1577,10.3086,17.9832,23.0249l0,0C392.0668,294.781,380.495,305.09,368.3951,305.09Z" fill="#ffa172" fill-rule="evenodd"/><path d="M287.5271,259.04h81.4088c12.1064,0,20.1577,10.3086,17.9832,23.0249v0c-2.1746,12.7162-13.7463,23.0248-25.8462,23.0248H280.9978" fill="#ffbc9a" fill-rule="evenodd"/><path d="M264.2672,293.3943,283.4848,267.87a1.0935,1.0935,0,0,1,.7643-.4138h.38a.5362.5362,0,0,1,.5244.4134l4.5248,25.1249a.9086.9086,0,0,1-.9281.9814l-4.21.0687c-.6825.0112-.9208-.2086-1.0552-.9152l-.5026-2.9421-10.3155.1438-2.24,3.0419a2.0466,2.0466,0,0,1-1.627.9287l-4.1722.0682C264.0584,294.3791,263.8978,293.8909,264.2672,293.3943Zm17.9231-8.2837-1.0812-6.1774-.0381,0-4.6452,6.24Z" fill="#ffa172"/><path d="M308.3136,268.5312a1.0288,1.0288,0,0,1,.9278-.7045l8.8355-.002c4.4754-.001,7.2706,2.9676,6.125,6.8179-.84,2.8232-4.0685,4.896-6.123,5.8286,1.7692.7914,4.3073,2.5608,3.3037,5.9324-1.2218,4.1048-5.8608,7.1349-10.3738,7.2086l-9.4057.1536a.5036.5036,0,0,1-.5133-.6926Zm5.9823,9.7642a3.898,3.898,0,0,0,3.44-2.6684,1.8258,1.8258,0,0,0-1.9129-2.4931l-2.9582.0105-1.5276,5.171ZM311.81,288.3542a3.9952,3.9952,0,0,0,3.5274-2.7215c.4365-1.4721-.8677-2.56-2.3459-2.5458l-3.0726.03-1.56,5.2823Z" fill="#ffa172"/><path d="M351.9716,267.4561c3.792,0,6.2609,1.1135,8.1632,3.3354.2546.2859.1236.7165-.2672,1.004l-3.8415,2.9188a.6837.6837,0,0,1-.948.0044,5.9747,5.9747,0,0,0-4.5638-1.8158c-4.2851.0149-8.4578,3.4323-9.6793,7.4914-1.2108,4.0232.9719,7.3163,5.2572,7.2611a10.8774,10.8774,0,0,0,5.6055-1.7913c.331-.2187.8241-.2245.9752.0245l2.0534,2.9416c.1894.247.01.7137-.3324.9686A18.0238,18.0238,0,0,1,344.12,293.43c-7.5858.1256-11.957-5.5592-9.7755-12.8375S344.3867,267.4561,351.9716,267.4561Z" fill="#ffa172"/><path d="M280.9978,305.09H258.8316c-12.1,0-20.1635-10.3086-18.0106-23.0248v0c2.1529-12.7163,13.7123-23.0249,25.8187-23.0249h20.8874" fill="#ff7f7f" fill-rule="evenodd"/><g clip-path="url(#b50f3f6d-b98e-4739-bc83-206f928c00e7)"><path d="M264.2672,293.3943,283.4848,267.87a1.0935,1.0935,0,0,1,.7643-.4138h.38a.5362.5362,0,0,1,.5244.4134l4.5248,25.1249a.9086.9086,0,0,1-.9281.9814l-4.21.0687c-.6825.0112-.9208-.2086-1.0552-.9152l-.5026-2.9421-10.3155.1438-2.24,3.0419a2.0466,2.0466,0,0,1-1.627.9287l-4.1722.0682C264.0584,294.3791,263.8978,293.8909,264.2672,293.3943Zm17.9231-8.2837-1.0812-6.1774-.0381,0-4.6452,6.24Z" fill="#ff4d4d"/></g><path d="M192.7116,254.78s-2.28-6.55-7.8279-10.0315a32.8376,32.8376,0,0,0-9.2718-4.02,1.2466,1.2466,0,0,1-.884-1.4747l6.2323-39.5841a1.5919,1.5919,0,0,1,2.2686-1.2618l30.1473,19.3668a1.3651,1.3651,0,0,1,.4014,1.7443,48.1528,48.1528,0,0,0-3.32,11.0047,25.6671,25.6671,0,0,0,1.5032,13.5369Z" fill="#783bff"/><path d="M188.0379,231.3127c1.234,3.09,4.8,4.1665,7.9673,2.4049,3.1691-1.7617,4.7431-5.6945,3.5126-8.7844-1.2322-3.09-4.8054-4.1665-7.9781-2.4048C188.3686,224.29,186.8022,228.2229,188.0379,231.3127Z" fill="#9a6cff"/><rect x="186.0759" y="197.5588" width="1.3529" height="26.1517" transform="translate(-65.1028 84.8875) rotate(-21.907)" fill="#9a6cff"/><path d="M1503.3693,555.3l-232.23.01c-7.0959,0-11.8594-5.5209-10.64-12.3319l26.9048-150.2256c1.22-6.811,7.9834-12.3327,15.1068-12.333l233.1313-.0105c7.1235,0,11.8777,5.5209,10.6189,12.332l-27.7649,150.2255C1517.238,549.7783,1510.4652,555.3,1503.3693,555.3Z" fill="#2f3133"/><path d="M1494.263,560.9437l-228.7662.0108c-6.99,0-11.6825-5.6992-10.4809-12.73l26.5035-155.0771c1.2016-7.031,7.8643-12.7311,14.8815-12.7314l229.6543-.0107c7.0172,0,11.7,5.6991,10.46,12.73l-27.3508,155.0772C1507.9249,555.2434,1501.253,560.9434,1494.263,560.9437Z" fill="#a176ff"/><line x1="1278.0852" y1="413.2416" x2="1532.9716" y2="413.2297" fill="none" stroke="#2f3133" stroke-miterlimit="10"/><path d="M1309.235,490.5819a384.48,384.48,0,0,0,66.8722,41.024,306.0206,306.0206,0,0,0,34.5855,14.3912,40.0525,40.0525,0,0,0,8.5859,2.3236,29.2888,29.2888,0,0,0,13.1575-1.333,23.7237,23.7237,0,0,0,8.6-5.5274,24.287,24.287,0,0,0,7.1772-12.836c1.9267-8.7264-2.2508-17.2157-8.5321-22.99-3.0968-2.8469-7.1775-4.7142-10.955-6.5269-12.9181-6.1985-26.0936-11.9329-38.3181-19.4621l4.271,2.65a107.4564,107.4564,0,0,1-20.7464-16.4508l3.4638,3.6423a74.8463,74.8463,0,0,1-11.1764-14.9752l2.4511,4.4674a59.7009,59.7009,0,0,1-5.17-12.6207l-30.72,22.3813c26.7664,18.6186,53.8723,37.4637,83.63,51.0484a228.12,228.12,0,0,0,21.4362,8.5532q7.7282,2.6212,15.6058,4.7991a48.845,48.845,0,0,0,14.3192,1.7231,29.2679,29.2679,0,0,0,8.95-1.8392,26.5671,26.5671,0,0,0,10.79-7.5352c6.4609-7.1669,7.5938-17.1295,4.7807-26.06-3.219-10.2188-12.1867-16.7445-20.2367-23.0208L1424.8,439.5627a20.431,20.431,0,0,0-14.4128-4.3045c-4.7949.4931-10.3036,3.2119-13.2351,7.1476-3.037,4.0775-5.0731,9.23-4.3045,14.4128.7564,5.1,2.9831,9.9881,7.1477,13.2351l29.4593,22.9686,14.73,11.4844c4.5028,3.5107,9.44,6.7917,13.4212,10.9023l-3.4638-3.6423a22.203,22.203,0,0,1,2.9068,3.84l-2.451-4.4674a13.4463,13.4463,0,0,1,1.0625,2.5612l-1.2328-5.1253a9.66,9.66,0,0,1,.2524,2.0754l.1638-5.269a9.092,9.092,0,0,1-.2334,1.546l1.49-4.8727a9.4547,9.4547,0,0,1-.6487,1.5185l2.65-4.271a8.3841,8.3841,0,0,1-1.2537,1.5521l3.6424-3.4638a9.7941,9.7941,0,0,1-1.1722.8469l4.4674-2.4511a10.4923,10.4923,0,0,1-2.2966.8824l5.1253-1.2328a16.2531,16.2531,0,0,1-3.6767.3222l5.269.1639c-4.4953-.2018-8.8686-1.6852-13.1428-2.9837l4.8728,1.4906c-23.0678-7.0954-44.5529-18.3069-65.0074-30.98l4.271,2.65c-14.1809-8.8134-27.91-18.3194-41.6135-27.8512a20.94,20.94,0,0,0-11.7782-4.2225c-4.2252-.1314-8.8277.88-12.2273,3.6019a23.48,23.48,0,0,0-6.2924,7.7348c-2.47,4.8614-1.8127,10.2775-.4216,15.2671a77.0391,77.0391,0,0,0,10.536,21.8574,101.5335,101.5335,0,0,0,16.4789,18.4533c11.8672,10.6906,26.2731,18.5006,40.5728,25.424,3.8442,1.8611,7.7138,3.6688,11.5787,5.4863a119.2306,119.2306,0,0,1,11.3074,5.541l-4.2711-2.65a12.8375,12.8375,0,0,1,2.1889,1.7767l-3.4638-3.6424a8.0182,8.0182,0,0,1,.8955,1.2987l-2.4511-4.4674a4.1767,4.1767,0,0,1,.3348.9691l-1.2328-5.1253a3.9357,3.9357,0,0,1,.0758,1.0554l.1639-5.269a3.6994,3.6994,0,0,1-.21,1.0186l1.4905-4.8727a4.0949,4.0949,0,0,1-.4673.9159l2.65-4.271a4.83,4.83,0,0,1-.6781.7955l3.6424-3.4638a8.31,8.31,0,0,1-1.3105.9283l4.4674-2.451a8.9716,8.9716,0,0,1-1.5226.5567l5.1253-1.2328a10.6206,10.6206,0,0,1-1.9.1494l5.269.1638a16.5557,16.5557,0,0,1-3.389-.6455l4.8728,1.49c-12.17-3.898-24.06-9.225-35.5642-14.7548a361.3406,361.3406,0,0,1-33.7478-18.5181l4.271,2.65q-14.7333-9.1677-28.5406-19.7055a20.513,20.513,0,0,0-14.4128-4.3045c-4.795.4931-10.3036,3.2119-13.2351,7.1477-3.037,4.0774-5.0731,9.23-4.3045,14.4127.7518,5.0692,2.9657,10.0422,7.1476,13.2351Z" fill="#c2a7ff"/><g clip-path="url(#b7bc0ce0-dfc5-49d0-b815-2cd25a49d0bf)"><g opacity="0.2"><path d="M1462.7376,442.12c-7.3584-15.0814-11.4069-27.5057-12.7441-39.1-1.7388-15.08,1.4826-28.4809,9.07-37.7354a35.4143,35.4143,0,0,1,31.3032-12.4732c4.2745-8.3626,11.033-14.63,19.45-17.4862,9.9309-3.3667,21.6193-1.3147,31.0918,4.3458a73.8442,73.8442,0,0,1,21.7659-22.7491l5.2906,7.8565a64.4309,64.4309,0,0,0-19.48,20.672,35.0643,35.0643,0,0,1,7.88,11.1928c2.0137,4.6431,2.5541,9.0259,1.5644,12.678a11.1685,11.1685,0,0,1-11.7068,8.3785c-6.6991-.6224-11.6395-6.8854-12.8855-12.4613-1.2142-5.4333.2775-10.268,1.8961-14.2808q.5867-1.4547,1.23-2.8791c-7.5725-4.5771-16.8957-6.0635-23.6026-3.7843a24.4954,24.4954,0,0,0-12.95,10.8255c13.8037,5.3368,24.79,18.8737,25.5938,32.104.6342,10.4634-5.609,18.941-14.5239,19.7206-8.574.7624-16.6485-5.6368-20.55-11.8826-3.5636-5.7028-5.2443-12.489-5.1373-20.7473a51.9458,51.9458,0,0,1,1.5935-12.2393,25.9145,25.9145,0,0,0-20.4988,9.2149c-5.9473,7.2526-8.4274,18.1363-6.9858,30.6438,1.21,10.4965,4.976,21.947,11.8482,36.0349Zm33.4741-78.2705a42.2577,42.2577,0,0,0-1.4481,10.5876c-.0833,6.3859,1.127,11.49,3.6983,15.6061,2.82,4.5122,7.9438,7.7679,11.6936,7.4667,4.1886-.3673,6.164-5.2787,5.8957-9.713C1515.4725,378.294,1506.6,367.7658,1496.2117,363.85Zm47.8051-9.35c-1.1284,2.7959-2.0824,5.7821-1.4363,8.6718.5378,2.4114,2.7774,4.9364,4.52,5.0976,1.02.1269,1.5327-.8509,1.6873-1.4243.4149-1.5354.02-3.82-1.1126-6.4335a24.5546,24.5546,0,0,0-3.6587-5.9116Z" fill="#2f3133"/></g></g><path d="M1469.2705,424.1117c-7.3584-15.0814-11.4069-27.5057-12.744-39.1-1.7389-15.08,1.4825-28.4808,9.0694-37.7353a35.4144,35.4144,0,0,1,31.3033-12.4732c4.2744-8.3626,11.0329-14.63,19.45-17.4863,9.931-3.3667,21.6193-1.3147,31.0918,4.3458a73.8431,73.8431,0,0,1,21.766-22.749l5.2905,7.8565a64.4309,64.4309,0,0,0-19.48,20.672,35.0616,35.0616,0,0,1,7.88,11.1928c2.0137,4.6431,2.5541,9.0259,1.5644,12.678a11.1685,11.1685,0,0,1-11.7068,8.3784c-6.6991-.6223-11.6395-6.8853-12.8854-12.4613-1.2143-5.4332.2774-10.2679,1.896-14.2807q.5866-1.4549,1.23-2.8792c-7.5725-4.577-16.8956-6.0635-23.6026-3.7842a24.495,24.495,0,0,0-12.95,10.8255c13.8037,5.3368,24.7905,18.8736,25.5938,32.1039.6342,10.4635-5.609,18.9411-14.5239,19.7206-8.574.7624-16.6485-5.6367-20.55-11.8825-3.5636-5.7028-5.2443-12.4891-5.1373-20.7473a51.9451,51.9451,0,0,1,1.5935-12.2393,25.9146,25.9146,0,0,0-20.4988,9.2148c-5.9473,7.2527-8.4274,18.1364-6.9858,30.6439,1.21,10.4965,4.9761,21.947,11.8482,36.0349Zm33.4741-78.2706a42.2585,42.2585,0,0,0-1.4481,10.5877c-.0833,6.3859,1.1271,11.49,3.6983,15.606,2.82,4.5123,7.9438,7.768,11.6936,7.4668,4.1886-.3674,6.164-5.2787,5.8957-9.713C1522.0054,360.2857,1513.1328,349.7575,1502.7446,345.8411Zm47.8051-9.35c-1.1284,2.7959-2.0824,5.7821-1.4362,8.6718.5377,2.4114,2.7774,4.9364,4.52,5.0976,1.02.1269,1.5327-.8509,1.6873-1.4244.4149-1.5353.02-3.82-1.1126-6.4334a24.5527,24.5527,0,0,0-3.6587-5.9116Z" fill="#ff4d4d"/><path d="M1366.28,31.4919a150.8857,150.8857,0,0,1-21.3674-70.3438,13.1487,13.1487,0,0,1,13.73-13.7657l64.327,2.903a13.061,13.061,0,0,1,12.4207,11.2617,61.7046,61.7046,0,0,0,18.8873,36.9336" fill="#2f3133"/><path d="M1454.2782-1.5193a61.4336,61.4336,0,0,0,39.5212,16.7608,61.7987,61.7987,0,0,0,63.0077-48.2151,13.0609,13.0609,0,0,1,13.3845-10.0971l64.327,2.903a13.1487,13.1487,0,0,1,12.4345,14.9465c-10.7275,76.61-78.4148,134.0786-157.2179,130.5223A151.8363,151.8363,0,0,1,1366.28,31.4919" fill="#2f3133"/><path d="M1478.8667,104.4651c-78.8031-3.5563-141.0388-66.8886-144.8222-144.153a13.1487,13.1487,0,0,1,13.73-13.7657l64.327,2.903a13.0609,13.0609,0,0,1,12.4207,11.2616,61.7984,61.7984,0,0,0,58.4086,53.6944,61.7983,61.7983,0,0,0,63.0076-48.215,13.0607,13.0607,0,0,1,13.3845-10.0971l64.3271,2.903a13.1486,13.1486,0,0,1,12.4344,14.9465C1625.3571,50.5523,1557.67,108.0213,1478.8667,104.4651Z" fill="#ff7a7a"/><g clip-path="url(#ec606ec4-31ff-41f4-b368-e52021cabbbf)"><path d="M1495.0569,139.5586a26.5188,26.5188,0,0,1-16.0368-5.0805c-8.0824-5.9921-14.3785-19.9822-9.1012-36.5409,3.4757-10.91,10.5514-19.9359,17.3938-28.6645q1.0782-1.3755,2.1484-2.7484a387.99,387.99,0,0,0,50.0078-84.6128c3.4473-8.0046,5.5389-19.1406,2.4391-25.9744a9.3571,9.3571,0,0,0-5.8957-5.3381c-8.3877-2.7127-16.6869,6.7056-22.165,15.0867L1433.6641,88.3366c-15.9951,24.4667-32.7527,34.4875-48.46,28.99-12.2519-4.2917-22.309-20.7011-17.1936-39.7319,3.999-14.8767,15.3365-26.7711,24.447-36.3282L1472.01-42.1946C1477.831-48.303,1490.538-63.6,1482.8275-73.71c-7.9887-10.4754-26.968-1.2262-32.5948,1.86A639.812,639.812,0,0,0,1275.5889,68.5142l-5.0937-4.4528A646.5816,646.5816,0,0,1,1446.98-77.7828c18.215-9.9865,33.6281-10,41.2276-.0291,7.6531,10.0354,3.5345,24.7191-11.3005,40.2842L1397.3544,45.933c-9.0272,9.4712-19.2587,20.2055-22.8111,33.4186-3.2121,11.9487,1.2037,27.4939,12.8967,31.59,15.715,5.4979,30.73-11.2695,40.5616-26.3074l80.1825-122.6508c12.2618-18.7507,23.0266-20.0443,29.9079-17.8218a16.203,16.203,0,0,1,9.9773,8.9809c4.2229,9.3126,1.353,22.76-2.3876,31.4459a394.6729,394.6729,0,0,1-50.88,86.0875q-1.0763,1.3854-2.1656,2.7708c-6.4718,8.2569-13.1656,16.7952-16.272,26.5438-2.9915,9.3893-2.1762,22.4848,6.6845,29.0517,8.4419,6.2578,20.6059,3.7433,28.3329-1.242,8.7973-5.6764,14.9005-14.4789,21.4066-24.5566a1096.4724,1096.4724,0,0,0,91.2564-173.775l6.2472,2.595a1103.3614,1103.3614,0,0,1-91.8193,174.8506c-6.6845,10.3512-13.5065,20.1725-23.4229,26.57A37.8684,37.8684,0,0,1,1495.0569,139.5586Z" fill="#ff4d4d"/></g><g clip-path="url(#b7bc0ce0-dfc5-49d0-b815-2cd25a49d0bf)"><path d="M1378.5079,568.064a36.0128,36.0128,0,0,0,7.9146-1.1933,12.6135,12.6135,0,0,0,5.1264-2.8079,14.1573,14.1573,0,0,0,3.2856-4.8459,51.6749,51.6749,0,0,0,2.3616-7.1639l13.94-53.3746a44.1028,44.1028,0,0,0,1.304-6.8818,8.7519,8.7519,0,0,0-.7489-4.9163,6.771,6.771,0,0,0-3.6347-3.02,22.08,22.08,0,0,0-7.3443-1.1933l1.0225-3.9327q7.0924.2822,14.2515.5623,7.1565.2823,14.32.28,13.6254,0,27.1839-.28,13.5535-.2822,27.6756-.5623-.8149,2.5277-1.4889,5.0555l-1.3107,4.9163q-1.1613,4.356-2.1436,8.5689A39.0029,39.0029,0,0,0,1479.1447,505l-3.2316.5624q-.5253-10.6723-6.4513-16.0835-5.9376-5.4052-19.9762-5.4063h-15.7242l-8.9646,34.1305h7.2822a31.0478,31.0478,0,0,0,7.3824-.9131,27.8789,27.8789,0,0,0,7.2886-2.9491,28.5041,28.5041,0,0,0,6.684-5.4082,34.4338,34.4338,0,0,0,5.5583-8.2867h2.805q-1.4449,4.9174-2.9927,9.9719-1.5525,5.0585-2.8559,9.9738-1.3407,5.0554-2.4523,10.0424-1.1172,4.985-2.3161,10.0424h-2.7962a24.01,24.01,0,0,0-.908-8.708,13.3343,13.3343,0,0,0-3.408-5.62,13.0814,13.0814,0,0,0-5.5711-3.02,28.5267,28.5267,0,0,0-7.527-.9131h-7.28l-10.9569,41.7156a39.21,39.21,0,0,0,7.0774,1.4755,73.7952,73.7952,0,0,0,9.0048.4919,57.302,57.302,0,0,0,26.427-6.531q12.7624-6.531,24.1266-20.2964l2.13,1.9673q-5.4834,7.4451-10.6141,14.8882-5.1308,7.4451-9.598,15.3095-10.7955-.285-21.4986-.4213-10.7-.141-21.5738-.141h-12.9667q-6.1392,0-11.3823.07-5.2464.0677-9.3955.21-4.1558.1382-6.8386.2821Z" fill="#2f3133"/><path d="M1524.9071,518.2028h7.2822a31.1379,31.1379,0,0,0,7.39-.9131,28.19,28.19,0,0,0,7.3159-2.9491,28.9968,28.9968,0,0,0,6.727-5.4082,35.0492,35.0492,0,0,0,5.6242-8.2867h2.8011q-1.4841,4.9174-3.072,9.9719-1.5927,5.0585-2.9352,9.9738-1.3807,5.0554-2.5321,10.0424-1.1509,4.985-2.396,10.0424H1548.32a34.487,34.487,0,0,0-.4212-8.708,10.93,10.93,0,0,0-2.8049-5.62,11.905,11.905,0,0,0-5.4766-3.02,33.7423,33.7423,0,0,0-8.57-.9131h-7.28l-8.78,32.4453a26.2473,26.2473,0,0,0-.9977,5.7589,5.4734,5.4734,0,0,0,1.236,3.9327,7.9672,7.9672,0,0,0,4.4115,2.2476,39.3689,39.3689,0,0,0,8.39.7034l-1.0694,3.9327q-6.6157-.285-13.1321-.4213-6.5209-.141-13.2086-.141-5.859,0-11.6119.141-5.7559.1381-11.6828.4213l1.0538-3.9327a34.7176,34.7176,0,0,0,7.6488-.7034,12.3991,12.3991,0,0,0,4.9981-2.2476,11.5535,11.5535,0,0,0,3.1523-3.9327,30.7459,30.7459,0,0,0,2.1066-5.7589l15.12-56.1826a44.307,44.307,0,0,0,1.3587-6.8818,8.721,8.721,0,0,0-.71-4.9163,6.681,6.681,0,0,0-3.6107-3.02,21.9683,21.9683,0,0,0-7.3309-1.1933l1.0538-3.9327q7.0842.2822,14.2431.5623,7.1541.2823,14.322.28,13.62,0,27.1116-.28,13.4853-.2822,27.19-.5623-.8349,2.5277-1.5288,5.0555l-1.35,4.9163q-1.1958,4.356-2.32,8.708a63.0889,63.0889,0,0,0-1.6206,8.71h-2.8q.1883-11.9393-5.7959-16.9967-5.9848-5.0554-19.7434-5.0555H1534.143Z" fill="#2f3133"/></g><path d="M1383.8974,571.3121a36.0178,36.0178,0,0,0,7.9145-1.1933,12.6148,12.6148,0,0,0,5.1265-2.808,14.1581,14.1581,0,0,0,3.2855-4.8458,51.6964,51.6964,0,0,0,2.3617-7.1639l13.94-53.3747a44.1017,44.1017,0,0,0,1.304-6.8817,8.7523,8.7523,0,0,0-.7488-4.9164,6.772,6.772,0,0,0-3.6348-3.02,22.0823,22.0823,0,0,0-7.3443-1.1933l1.0226-3.9327q7.0923.2821,14.2514.5624,7.1565.2822,14.32.28,13.6254,0,27.1838-.28,13.5535-.2821,27.6757-.5624-.8151,2.5278-1.4889,5.0555l-1.3107,4.9164q-1.1615,4.3558-2.1437,8.5688a39.0033,39.0033,0,0,0-1.0777,7.7243l-3.2316.5624q-.5255-10.6723-6.4513-16.0835-5.9377-5.4052-19.9763-5.4062h-15.7242l-8.9645,34.13h7.2822a31.049,31.049,0,0,0,7.3824-.9131,27.8779,27.8779,0,0,0,7.2885-2.949,28.5051,28.5051,0,0,0,6.6841-5.4082,34.4376,34.4376,0,0,0,5.5582-8.2867h2.8051q-1.4451,4.9173-2.9927,9.9718-1.5525,5.0584-2.856,9.9738-1.3405,5.0556-2.4523,10.0424-1.117,4.985-2.3161,10.0424h-2.7961a24.01,24.01,0,0,0-.908-8.7079,13.3358,13.3358,0,0,0-3.4081-5.62,13.08,13.08,0,0,0-5.571-3.02,28.5267,28.5267,0,0,0-7.527-.9131h-7.28l-10.9568,41.7157a39.2233,39.2233,0,0,0,7.0774,1.4755,73.7937,73.7937,0,0,0,9.0047.4918,57.3017,57.3017,0,0,0,26.427-6.531q12.7624-6.531,24.1266-20.2964l2.13,1.9673q-5.4834,7.4451-10.6141,14.8882-5.1306,7.4451-9.598,15.31-10.7953-.2852-21.4986-.4213-10.7-.1412-21.5738-.1411h-12.9667q-6.139,0-11.3823.0705-5.2464.0677-9.3954.21-4.1559.1381-6.8387.2822Z" fill="#ffa172"/><path d="M1530.2966,521.4508h7.2821a31.1379,31.1379,0,0,0,7.39-.9131,28.1879,28.1879,0,0,0,7.3159-2.949,28.9973,28.9973,0,0,0,6.727-5.4082,35.0533,35.0533,0,0,0,5.6242-8.2867h2.8011q-1.4841,4.9173-3.0719,9.9718-1.5929,5.0584-2.9353,9.9738-1.3807,5.0556-2.5321,10.0424-1.1509,4.985-2.396,10.0424h-2.7922a34.4771,34.4771,0,0,0-.4212-8.7079,10.9294,10.9294,0,0,0-2.8049-5.62,11.9051,11.9051,0,0,0-5.4765-3.02,33.7428,33.7428,0,0,0-8.57-.9131h-7.28l-8.78,32.4453a26.25,26.25,0,0,0-.9978,5.759,5.4737,5.4737,0,0,0,1.236,3.9327,7.9678,7.9678,0,0,0,4.4116,2.2475,39.3668,39.3668,0,0,0,8.39.7035l-1.0693,3.9327q-6.6157-.2852-13.1322-.4213-6.5209-.1412-13.2086-.1411-5.8588,0-11.6119.1411-5.7558.1381-11.6828.4213l1.0538-3.9327a34.7185,34.7185,0,0,0,7.6489-.7035,12.3992,12.3992,0,0,0,4.998-2.2475,11.5554,11.5554,0,0,0,3.1523-3.9327,30.7444,30.7444,0,0,0,2.1066-5.759l15.12-56.1826a44.306,44.306,0,0,0,1.3587-6.8817,8.7214,8.7214,0,0,0-.71-4.9164,6.6815,6.6815,0,0,0-3.6107-3.02,21.97,21.97,0,0,0-7.3309-1.1933l1.0538-3.9327q7.0843.2821,14.2431.5624,7.1542.2822,14.322.28,13.62,0,27.1116-.28,13.4853-.2821,27.19-.5624-.835,2.5278-1.5289,5.0555l-1.35,4.9164q-1.1956,4.3558-2.32,8.708a63.07,63.07,0,0,0-1.6207,8.71h-2.8q.1883-11.9392-5.7959-16.9966-5.9847-5.0556-19.7434-5.0555h-15.7281Z" fill="#ffa172"/><g opacity="0.7"><path d="M-33.1231,48.8271l-9.1914-9.01C-24.5477,21.698,8.6277,3.3983,46.4265-9.1368c36.8911-12.2384,73.8527-17.4726,98.86-14.0057l-1.7649,12.7512C120.3621-13.6118,85.5853-8.5661,50.4791,3.0815,14.5307,15.0031-16.7239,32.1037-33.1231,48.8271Z" fill="#5228ae"/><path d="M89.3132-54.155A85.2261,85.2261,0,0,0,26.9768-52.89,85.5218,85.5218,0,0,0-19.2061,58.8924,85.02,85.02,0,0,0,11.0015,96.3189" fill="#423da3"/><path d="M11.0012,96.319a85.8944,85.8944,0,0,0,18.2442,9.6342,85.55,85.55,0,0,0,9.2465,2.968,85.12,85.12,0,0,0,54.0833-3.8453A85.5114,85.5114,0,0,0,89.3131-54.155" fill="#423da3"/><path d="M104.1183-46.2667c13.5426,8.8444,11.9293,36.44-2.1376,67.1272a29.27,29.27,0,0,0-15.0185-3.9572A29.6747,29.6747,0,0,0,69.123,70.13C47.3489,93.56,23.9938,104.9467,10.935,96.4188l.0662-.1a85.8944,85.8944,0,0,0,18.2442,9.6342,85.55,85.55,0,0,0,9.2465,2.968,85.12,85.12,0,0,0,54.0833-3.8453A85.523,85.523,0,0,0,138.76-6.7056a85.099,85.099,0,0,0-33.9524-39.9029" fill="#421bae"/><path d="M-18.5085,61.4782c18.61,1.7346,46.8928-1.6258,80.6829-13.56,25.9714-9.1713,49.024-21.3745,64.914-34.362A75.9634,75.9634,0,0,0,141.2366-1.0511l2.8878,16.5334a112.5288,112.5288,0,0,1-8.8905,8.04c-17.0113,13.9052-41.4353,26.88-68.773,36.5341C40.83,69.1069,13.0939,74.7685-9.4483,74.7685" fill="#421bae"/><path d="M-6.5119,94.4747c-25.0374,0-44.1542-6.0639-48.9887-20.6378-2.3255-7.0167-1.9258-18.614,13.1861-34.0226l9.1914,9.0154c-8.1254,8.2838-11.8286,15.9214-10.1593,20.9546,4.4449,13.4,50.364,18.9106,115.04-2.5417,28.8563-9.5685,54.62-22.39,72.5479-36.1043C159.7372,19.3373,167.8651,7.6118,165.52.54c-1.7423-5.2493-9.76-9.2341-22-10.9311l1.77-12.7512c22.4706,3.1149,30.0479,12.3942,32.4489,19.63C187.2786,25.26,132.3441,60.7111,75.8107,79.4608,47.91,88.715,17.887,94.4722-6.5119,94.4747Z" fill="#5228ae"/></g><circle cx="157.5276" cy="423.1432" r="13.4032" fill="#ff4d4d"/><path d="M162.6981,410.7761A13.4,13.4,0,0,1,145.3,428.6135a13.4,13.4,0,1,0,17.3985-17.8374Z" fill="#2f3133" opacity="0.2"/><path d="M1694.5547,188.1549l-1.5119-.2485c1.7169-10.4379,14.08-15.22,27.1689-20.2831,13.8838-5.3709,28.2407-10.9244,31.1529-23.5583l1.4939.3443c-3.0956,13.4257-17.8371,19.129-32.0937,24.6436C1708.0965,173.9523,1696.13,178.5822,1694.5547,188.1549Z" fill="#ff4d4d"/><path d="M1698.8164,196.1364l-1.3907-.6466c2.5485-5.4877,3.6383-10.7179,4.6914-15.7744,3.1547-15.1443,5.8791-28.2213,46.6227-37.4482l.3383,1.4939c-39.7819,9.01-42.2877,21.0376-45.46,36.2671C1702.5467,185.17,1701.439,190.4871,1698.8164,196.1364Z" fill="#ffa172"/><path d="M1695.96,189.9722l-.0839-1.53c39.0275-2.1405,43.3962-23.4071,48.0216-45.9221.5554-2.705,1.113-5.4174,1.7327-8.1073l1.4939.3443c-.6174,2.678-1.1721,5.38-1.7252,8.0713C1740.8608,164.9214,1736.1673,187.7687,1695.96,189.9722Z" fill="#f294ff"/><circle cx="1693.631" cy="191.7079" r="9.0052" fill="#783bff"/><circle cx="1754.0341" cy="135.8924" r="9.0052" fill="#783bff"/><path d="M1704.8925,203.7514l-40.6268,38.2353a272.3614,272.3614,0,0,1-73.1844,48.0524l-3.7926,1.6917h0a272.36,272.36,0,0,1,58.4762-76.9116l37.1377-35.0339Z" fill="#8249ff"/><path d="M1851.9613,69.649l-86.9676,77.8552-21.99-23.9661,87.0979-77.9717a7.1319,7.1319,0,0,1,10.0121.492l12.3455,13.455A7.132,7.132,0,0,1,1851.9613,69.649Z" fill="#8249ff"/><g opacity="0.2"><path d="M1852.46,59.5134l-7.2185-7.8671a7.1253,7.1253,0,0,1-1.4353,8.8277l-86.9676,77.855-13.69-14.92-.1441.1291,21.99,23.9663,86.9678-77.8554A7.132,7.132,0,0,0,1852.46,59.5134Z" fill="#2f3133"/></g><path d="M1682.5423,180.1253l14.1945,15.47L1656.11,233.8311a272.36,272.36,0,0,1-59.8015,41.6271q-4.779,7.9712-9.02,16.2726l3.7924-1.6916a272.3613,272.3613,0,0,0,73.1844-48.0526l40.6269-38.2352-21.99-23.9663Z" fill="#2f3133" opacity="0.2"/><path d="M1672.7321,234.1005c8.4139-12.1513-9.837-36.0006,1.87-46.7492l8.3006-7.566,21.99,23.9661Z" fill="#ffa172"/><path d="M1776.5472,137.2517c8.4139-12.1513-11.5372-33.0882.17-43.8368l-33.7588,30.1631,22.0354,23.9262Z" fill="#ffa172"/><path d="M1777.7005,141.0831l-.9475-1.2065,77.7891-61.1278a20.4059,20.4059,0,0,0,2.4587-29.8064l-7.8087-8.5474-8.13,6.8978-.9925-1.1676,9.2577-7.8558,8.8055,9.64a21.94,21.94,0,0,1-2.6428,32.0458Z" fill="#2f3133"/><path d="M1777.5821,142.0763l-1.8229-2.3191,78.3468-61.566a19.7,19.7,0,0,0,2.373-28.7714l-7.35-8.0435-8.1486,6.913-1.91-2.2458,10.3184-8.7553,9.2652,10.1442a22.6443,22.6443,0,0,1-2.7281,33.0793Zm.1645-2.0813.0732.0939,77.2329-60.6911A21.2325,21.2325,0,0,0,1857.61,48.386l-8.3448-9.1353-8.1983,6.9558.0774.09,8.11-6.8826,8.27,9.0524a21.1117,21.1117,0,0,1-2.5443,30.839Z" fill="#a47cff"/><path d="M1777.0569,120.0908l-20.2188,18.2382,8.1556,9.1752,11.5535-10.2525a12.1184,12.1184,0,0,0,2.2088-9.515A56.9268,56.9268,0,0,0,1777.0569,120.0908Z" fill="#ffc2a3"/><path d="M1674.0064,217.1944l23.4193-21.7046,7.4668,8.2616-32.16,30.3491a19.1751,19.1751,0,0,0,2.2937-8.75A30.4515,30.4515,0,0,0,1674.0064,217.1944Z" fill="#ffc2a3"/><g opacity="0.4"><circle cx="1902.8565" cy="350.4283" r="78.3583" fill="#783bff"/><g opacity="0.67"><g clip-path="url(#ae092e48-7e5e-4509-97a2-e41b789a6c6b)"><path d="M1918.9669,440.7708a175.8264,175.8264,0,0,1-.047-23.7028c-7.8511,5.02-17.2737,9.6629-27.7025,11.5515-17.2437,3.12-34.4592-2.5194-43.8442-14.3778-5.3843-6.8065-8.3506-15.5738-8.8406-25.8928l-.413.0169c-15.111.5519-34.8347-4.5113-44.7416-20.3789-12.0509-19.3041-3.7547-43.48,5.328-60.3632a214.2476,214.2476,0,0,1,89.75-88.1409l4.4,8.5458a204.5375,204.5375,0,0,0-85.6852,84.15c-7.8775,14.6407-15.25,35.3256-5.64,50.7182,7.7348,12.3888,23.7808,16.3313,36.239,15.8629.3286-.0113.6571-.0263.9894-.0432a91.7347,91.7347,0,0,1,1.7835-11.4651c9.064-41.5952,38.9687-77.9346,78.0387-94.8384,14.452-6.2489,22.6055-3.1184,26.9028.611,8.5477,7.4147,7.4156,20.8042-3.03,35.8147-12.5352,18.0181-25.4985,36.6492-42.3648,51.7837-11.7824,10.5715-29.8109,23.07-51.9827,26.7356.27,7.4682,2.0877,14.9562,6.8055,20.92,7.2091,9.1119,20.7976,13.382,34.5925,10.8841,11.8819-2.1524,22.5848-8.66,30.6838-14.6416a179.65,179.65,0,0,1,42.0119-93.099c2.4463-2.8189,9.89-11.3966,19.4215-9.6188,7.9676,1.4888,12.4244,9.3353,12.71,16.3163.2685,6.51-2.3486,12.4066-4.8211,17.423a216,216,0,0,1-58.086,72.44q-1.0588.852-2.204,1.7469a166.546,166.546,0,0,0-.6646,30.3722Zm60.0591-129.5961c-2.61,0-5.75,2.1524-9.5671,6.5483a169.7542,169.7542,0,0,0-37.9962,77.698,206.4924,206.4924,0,0,0,49.4275-64.1293c2.037-4.1349,4.012-8.527,3.8374-12.7793-.1258-3.0789-2.0239-6.7294-4.87-7.2616A4.5063,4.5063,0,0,0,1979.026,311.1747Zm-45.6146-32.7414c-3.5726,0-7.6522,1.347-11.0127,2.801-36.28,15.6968-64.0466,49.44-72.4648,88.063-.5538,2.5429-1.0438,5.3017-1.3817,8.176,15.34-3.0677,31.0255-11.361,45.117-24.006,16.0366-14.3873,28.6732-32.5518,40.8968-50.1184,1.9618-2.82,11.4032-17.1808,4.62-23.0645A8.5677,8.5677,0,0,0,1933.4114,278.4333Z" fill="#ff4d4d"/></g></g><path d="M1916.6262,410.4271a78.38,78.38,0,0,1-68.9393-115.6331,78.36,78.36,0,1,0,124.109,92.9094A78.102,78.102,0,0,1,1916.6262,410.4271Z" fill="#2f3133" opacity="0.2"/></g><rect x="36.7509" y="251.4973" width="23.6526" height="135.6774" rx="11.8263" transform="translate(58.623 -3.5174) rotate(10.4317)" fill="#ffbc9a"/><circle cx="57.5757" cy="270.8627" r="2.2368" fill="#783bff"/><circle cx="39.5788" cy="367.8093" r="2.2368" fill="#783bff"/><line x1="39.5788" y1="367.8093" x2="57.5757" y2="270.8627" fill="none" stroke="#783bff" stroke-miterlimit="10"/><rect x="-16.2054" y="3.2288" width="1952.4135" height="639.9803" fill="none"/></g></g></svg>